<?xml version="1.0" encoding="UTF-8"?>
<svg version="1.1" xmlns="http://www.w3.org/2000/svg" width="800" height="600">
<path d="M0 0 C2.21742791 1.50769753 4.30836925 3.08028235 6.37109375 4.79296875 C7.92992199 6.19845526 7.92992199 6.19845526 10 6 C10.103125 5.21625 10.20625 4.4325 10.3125 3.625 C11 1 11 1 14 -1 C17.21484375 -1.30078125 17.21484375 -1.30078125 20.9375 -1.3125 C22.16339844 -1.32925781 23.38929688 -1.34601563 24.65234375 -1.36328125 C28.27904909 -0.96971813 29.41988921 -0.47815047 32 2 C32.50057125 4.01620483 32.50057125 4.01620483 32.50120544 6.36474609 C32.51103958 7.25643494 32.52087372 8.14812378 32.53100586 9.0668335 C32.52133789 10.04251282 32.51166992 11.01819214 32.50170898 12.0234375 C32.50981346 13.56768402 32.50981346 13.56768402 32.51808167 15.14312744 C32.53061269 18.55404199 32.51404826 21.96411969 32.49609375 25.375 C32.49624864 27.74007207 32.49773587 30.10514439 32.50050354 32.47021484 C32.5018895 37.43012697 32.48929618 42.38975061 32.46655273 47.34960938 C32.43816787 53.71555127 32.44090297 60.08101359 32.45364285 66.44699097 C32.46058925 71.3316662 32.45282257 76.21623009 32.44038582 81.10089111 C32.43586123 83.44850233 32.43554326 85.79612547 32.43945122 88.14373779 C32.44235321 91.42159637 32.42590435 94.69878806 32.40405273 97.9765625 C32.40855438 98.95224182 32.41305603 99.92792114 32.41769409 100.9331665 C32.40778946 101.82485535 32.39788483 102.71654419 32.38768005 103.63525391 C32.38525016 104.41027252 32.38282026 105.18529114 32.38031673 105.98379517 C31.89210244 108.57200632 31.10755763 109.45067648 29 111 C26.23492967 111.32513009 23.7603202 111.46451381 21 111.4375 C20.27554688 111.45748047 19.55109375 111.47746094 18.8046875 111.49804688 C13.54333259 111.49319323 13.54333259 111.49319323 11.30151367 109.45825195 C9.5121221 106.07851386 9.5213091 102.90920136 9.48828125 99.171875 C9.47033005 98.42286926 9.45237885 97.67386353 9.43388367 96.90216064 C9.37985457 94.51816376 9.34590997 92.1343662 9.3125 89.75 C9.27932025 88.13018064 9.24482997 86.51038756 9.20898438 84.890625 C9.12413284 80.92722734 9.05728711 76.96388803 9 73 C8.2280127 73.7930957 7.45602539 74.58619141 6.66064453 75.40332031 C4.11307734 77.88964116 2.06549523 79.24744262 -1.125 80.75 C-1.97320312 81.15734375 -2.82140625 81.5646875 -3.6953125 81.984375 C-10.86977131 85.14600092 -18.85376117 85.14526812 -26.1875 82.375 C-38.31372821 76.82768854 -45.92273784 69.36202962 -51 57 C-54.86419284 45.90733454 -54.70281979 31.44715631 -50.32421875 20.5390625 C-48.05597379 16.18992024 -45.35104382 12.57123561 -42 9 C-41.40316406 8.36191406 -40.80632812 7.72382813 -40.19140625 7.06640625 C-29.55712062 -3.21414015 -13.50465317 -6.95617041 0 0 Z M-25.875 23.9375 C-31.09179664 31.45582457 -31.1058546 40.1375878 -30 49 C-28.88410671 52.32852291 -27.43850734 54.50327896 -25 57 C-24.113125 57.94875 -23.22625 58.8975 -22.3125 59.875 C-17.36232017 63.05058706 -12.50260413 64.5020019 -6.6015625 63.65625 C0.22987447 61.6977493 5.0484039 57.95887151 8.9375 52.0625 C11.34693928 45.37293877 11.3827755 35.6827405 8.9375 29 C5.91782526 24.3243746 2.43388103 20.51295308 -2.3125 17.5625 C-11.40310783 15.65981464 -19.50734315 16.75300087 -25.875 23.9375 Z " fill="#183151" transform="translate(398,263)"/>
<path d="M0 0 C7.86105473 6.1432687 11.05234568 14.88727974 12.609375 24.4609375 C12.88079323 28.36704953 12.89026975 32.25746447 12.875 36.171875 C12.87691345 37.2618277 12.8788269 38.3517804 12.88079834 39.47476196 C12.88215183 41.76231113 12.87851418 44.04986819 12.87011719 46.33740234 C12.85934348 49.84620193 12.87007288 53.35449677 12.8828125 56.86328125 C12.88149198 59.09114696 12.8789318 61.31901236 12.875 63.546875 C12.87904846 64.59684662 12.88309692 65.64681824 12.88726807 66.72860718 C12.87781158 68.18624985 12.87781158 68.18624985 12.86816406 69.67333984 C12.86657288 70.52777679 12.86498169 71.38221375 12.86334229 72.26254272 C12.609375 74.4609375 12.609375 74.4609375 10.609375 77.4609375 C7.12909758 78.62102997 4.27615857 78.66510271 0.609375 78.7109375 C-0.628125 78.73671875 -1.865625 78.7625 -3.140625 78.7890625 C-6.390625 78.4609375 -6.390625 78.4609375 -8.328125 77.2578125 C-9.72552228 74.8945671 -9.60930616 73.15800517 -9.390625 70.4609375 C-10.00808594 70.93144531 -10.62554687 71.40195312 -11.26171875 71.88671875 C-21.41022918 79.34749582 -29.67648712 81.75977111 -42.390625 80.4609375 C-49.21144774 78.75802068 -55.47484955 75.66081273 -59.5703125 69.76171875 C-60.59290944 68.04121805 -61.49554655 66.2510944 -62.390625 64.4609375 C-63.009375 63.31625 -63.009375 63.31625 -63.640625 62.1484375 C-65.62711375 55.03018615 -64.69687317 48.41727172 -61.72265625 41.72265625 C-58.51343395 36.27356619 -53.23641783 32.66689706 -47.390625 30.4609375 C-38.79303448 28.52462762 -30.42170949 28.2068039 -21.640625 28.3359375 C-20.4546875 28.34496094 -19.26875 28.35398437 -18.046875 28.36328125 C-15.16123593 28.38655253 -12.27604645 28.41924066 -9.390625 28.4609375 C-9.8307513 26.66928952 -10.28371389 24.88079102 -10.7421875 23.09375 C-11.11851318 21.59932373 -11.11851318 21.59932373 -11.50244141 20.07470703 C-12.21863717 17.26481924 -12.21863717 17.26481924 -14.765625 15.3359375 C-24.44515889 12.1094262 -33.95376643 12.79385164 -43.390625 16.4609375 C-44.10347656 16.82574219 -44.81632812 17.19054687 -45.55078125 17.56640625 C-47.390625 18.4609375 -47.390625 18.4609375 -49.390625 18.3984375 C-54.03292397 16.22235986 -56.62365933 11.07468119 -58.390625 6.4609375 C-57.17575718 2.53952871 -54.91105846 1.27366839 -51.390625 -0.6015625 C-35.13513218 -8.86529437 -15.80023393 -10.17204603 0 0 Z M-39.640625 47.2734375 C-41.69872159 49.84605824 -42.31217897 51.16620413 -42.390625 54.4609375 C-41.188997 57.79879306 -39.97954308 59.9088268 -37.390625 62.3359375 C-31.4334748 64.56986882 -24.89253135 64.47005312 -19.015625 61.9609375 C-14.82354932 59.51124719 -11.95496239 56.06369944 -10.390625 51.4609375 C-10.23155331 48.76954707 -10.30022098 46.16175769 -10.390625 43.4609375 C-13.9530558 43.40266192 -17.51536319 43.36724865 -21.078125 43.3359375 C-22.08552734 43.31917969 -23.09292969 43.30242187 -24.13085938 43.28515625 C-25.59555664 43.27548828 -25.59555664 43.27548828 -27.08984375 43.265625 C-27.98533936 43.25515137 -28.88083496 43.24467773 -29.8034668 43.23388672 C-33.7699652 43.58198934 -36.5538388 44.78685973 -39.640625 47.2734375 Z " fill="#1A3252" transform="translate(509.390625,266.5390625)"/>
<path d="M0 0 C8.76828312 6.94155747 15.33829714 15.59937942 17.8359375 26.73828125 C19.42477318 41.46407533 16.81770393 52.67332009 8.58984375 65.06640625 C8.11675781 65.6078125 7.64367187 66.14921875 7.15625 66.70703125 C6.49625 66.70703125 5.83625 66.70703125 5.15625 66.70703125 C4.66125 68.19203125 4.66125 68.19203125 4.15625 69.70703125 C-7.05031065 77.83040306 -18.09133254 81.02391127 -31.84375 79.70703125 C-42.77080235 77.61858438 -52.49182888 72.61741994 -59.46875 63.77734375 C-67.6050511 51.52666312 -70.1575449 40.22234888 -67.84375 25.70703125 C-66.15841443 19.7644262 -63.55436714 14.65452077 -59.84375 9.70703125 C-59.1425 8.73765625 -58.44125 7.76828125 -57.71875 6.76953125 C-43.66558617 -9.66186031 -17.34763572 -12.55260261 0 0 Z M-41.625 20.765625 C-45.79644344 27.41052047 -46.81065023 33.91626044 -45.84375 41.70703125 C-44.02512441 48.90146834 -39.88567507 53.53847515 -33.84375 57.70703125 C-27.97702468 59.66260636 -21.24869296 59.71255162 -15.53125 57.20703125 C-10.15643089 54.02849346 -6.79641821 49.80531059 -4.9609375 43.8359375 C-3.29257989 35.54694556 -3.91810721 28.94509009 -7.84375 21.45703125 C-11.05648336 16.7044671 -15.50968131 14.52145462 -20.84375 12.70703125 C-29.0423351 11.55635264 -36.62782469 14.11660563 -41.625 20.765625 Z " fill="#173051" transform="translate(315.84375,267.29296875)"/>
<path d="M0 0 C1.07894531 -0.00676758 1.07894531 -0.00676758 2.1796875 -0.01367188 C2.96859375 -0.01882812 3.7575 -0.02398437 4.5703125 -0.02929688 C5.80007812 -0.00609375 5.80007812 -0.00609375 7.0546875 0.01757812 C7.87453125 0.00210938 8.694375 -0.01335937 9.5390625 -0.02929688 C10.32796875 -0.02414063 11.116875 -0.01898438 11.9296875 -0.01367188 C12.64898437 -0.00916016 13.36828125 -0.00464844 14.109375 0 C16.0546875 0.51757812 16.0546875 0.51757812 17.65498352 2.0166626 C19.6664182 5.61058553 19.44874356 9.04106031 19.39526367 13.04980469 C19.39592079 14.33815216 19.39592079 14.33815216 19.39659119 15.65252686 C19.39450322 18.4879845 19.3711718 21.32284892 19.34765625 24.15820312 C19.34206032 26.12546465 19.33779021 28.09273036 19.33479309 30.05999756 C19.32334407 35.23534711 19.29387628 40.41044369 19.26068115 45.58569336 C19.22998158 50.86764097 19.21628799 56.14962949 19.20117188 61.43164062 C19.16900673 71.79373088 19.11780958 82.15563346 19.0546875 92.51757812 C20.34157471 92.50186768 21.62846191 92.48615723 22.9543457 92.4699707 C27.72332514 92.41572037 32.49227724 92.38124583 37.26147461 92.3527832 C39.32662541 92.33768541 41.3917441 92.31720539 43.45678711 92.29125977 C46.42309489 92.25492018 49.38897921 92.23786183 52.35546875 92.22460938 C53.2805574 92.20912552 54.20564606 92.19364166 55.1587677 92.1776886 C56.01943344 92.17746201 56.88009918 92.17723541 57.7668457 92.17700195 C58.52407425 92.17034012 59.2813028 92.16367828 60.06147766 92.15681458 C62.63679632 92.62293765 63.50578463 93.43453586 65.0546875 95.51757812 C65.38101111 98.10170834 65.51938724 100.37604861 65.4921875 102.95507812 C65.51152344 104.27378906 65.53085938 105.5925 65.55078125 106.95117188 C64.97191592 111.11262102 64.32061373 112.0005671 61.0546875 114.51757812 C58.24682617 115.03224182 58.24682617 115.03224182 54.97265625 115.05102539 C53.74458252 115.06686172 52.51650879 115.08269806 51.2512207 115.09901428 C49.91487243 115.09517294 48.57852714 115.09013397 47.2421875 115.08398438 C45.86742736 115.08922088 44.49267081 115.09549746 43.11791992 115.10276794 C40.23957386 115.1131672 37.36172232 115.10861783 34.48339844 115.09399414 C30.79747273 115.07679872 27.1131048 115.10031007 23.42735291 115.13548374 C20.58937278 115.15745922 17.75176544 115.15601635 14.91372681 115.14771843 C13.55496511 115.1468991 12.19617599 115.1537592 10.8374939 115.16848946 C8.93730412 115.18593413 7.03688965 115.16807384 5.13671875 115.14868164 C4.05624268 115.14771988 2.9757666 115.14675812 1.86254883 115.14576721 C-0.9453125 114.51757812 -0.9453125 114.51757812 -3.29408264 112.61206055 C-5.66145508 108.17549324 -5.49707805 104.33262407 -5.44702148 99.37475586 C-5.45242447 98.35632599 -5.45782745 97.33789612 -5.46339417 96.28860474 C-5.47589066 92.92583056 -5.45938475 89.56391088 -5.44140625 86.20117188 C-5.4415612 83.86377416 -5.44304958 81.52637619 -5.44581604 79.1889801 C-5.44720041 74.29229361 -5.4346342 69.39589989 -5.41186523 64.49926758 C-5.38346515 58.21867601 -5.38622185 51.93857038 -5.39895535 45.65794277 C-5.40590535 40.83242126 -5.39813119 36.00701234 -5.38569832 31.1815052 C-5.38117835 28.86542251 -5.38085176 26.54932775 -5.38476372 24.23324394 C-5.38766961 20.99891182 -5.37119856 17.76525298 -5.34936523 14.53100586 C-5.35386688 13.57141464 -5.35836853 12.61182343 -5.36300659 11.62315369 C-5.35310196 10.74139465 -5.34319733 9.85963562 -5.33299255 8.95115662 C-5.33056266 8.18703177 -5.32813276 7.42290693 -5.32562923 6.63562679 C-4.73810288 3.36359243 -3.30040818 0.87812065 0 0 Z " fill="#1F3656" transform="translate(175.9453125,230.482421875)"/>
<path d="M0 0 C2.15456419 3.10455935 1.70769347 6.44275823 1.60546875 10.078125 C1.6003125 10.81933594 1.59515625 11.56054688 1.58984375 12.32421875 C1.5097765 17.79881725 1.5097765 17.79881725 0.35546875 18.953125 C-1.83043913 19.08659292 -4.01855936 19.18439858 -6.20703125 19.265625 C-13.69173314 19.76054425 -18.50446632 21.06095993 -24.01953125 26.140625 C-27.86081246 32.78899633 -27.93451171 40.40944567 -27.953125 47.9140625 C-27.97824934 49.78515984 -28.00364779 51.65625353 -28.02929688 53.52734375 C-28.05818041 56.44384062 -28.08223621 59.36027451 -28.10083008 62.27685547 C-28.12240325 65.1145567 -28.16178913 67.95159063 -28.203125 70.7890625 C-28.20324081 71.66404388 -28.20335663 72.53902527 -28.20347595 73.44052124 C-28.21681473 74.252117 -28.2301535 75.06371277 -28.24389648 75.89990234 C-28.25150246 76.96837906 -28.25150246 76.96837906 -28.25926208 78.05844116 C-28.76451521 80.54318433 -29.64075206 81.43538966 -31.64453125 82.953125 C-34.859375 83.31640625 -34.859375 83.31640625 -38.58203125 83.265625 C-40.42087891 83.25982422 -40.42087891 83.25982422 -42.296875 83.25390625 C-45.37902187 82.97698057 -47.11804111 82.67600864 -49.64453125 80.953125 C-51.11699704 78.00819343 -50.80049828 75.02614984 -50.80566406 71.79711914 C-50.81062897 71.0603746 -50.81559387 70.32363007 -50.82070923 69.56455994 C-50.83533868 67.12245762 -50.8421336 64.68042022 -50.84765625 62.23828125 C-50.8534064 60.54438779 -50.85916415 58.85049436 -50.8649292 57.15660095 C-50.87544096 53.60317684 -50.88128269 50.04977537 -50.88476562 46.49633789 C-50.89025533 41.93856252 -50.91429261 37.38108515 -50.94273758 32.82340336 C-50.96134067 29.32416401 -50.96656827 25.82499683 -50.9681015 22.3257122 C-50.97113309 20.6451498 -50.97917859 18.96458881 -50.99228668 17.28407478 C-51.0093014 14.93532596 -51.00747868 12.58731047 -51.00097656 10.23852539 C-51.01019135 9.54179718 -51.01940613 8.84506897 -51.02890015 8.12722778 C-51.00447118 5.3167696 -50.93898257 3.39314295 -49.35272217 1.02268982 C-46.3797233 -0.83882049 -43.03917004 -0.47623754 -39.64453125 -0.421875 C-38.55785156 -0.43927734 -38.55785156 -0.43927734 -37.44921875 -0.45703125 C-34.4676916 -0.44052833 -32.21295092 -0.40758139 -29.65625 1.21484375 C-27.81718159 4.37463311 -28.46849223 7.37366494 -28.64453125 10.953125 C-27.98453125 10.953125 -27.32453125 10.953125 -26.64453125 10.953125 C-26.37640625 10.35628906 -26.10828125 9.75945312 -25.83203125 9.14453125 C-22.95091669 3.8277376 -18.22274811 0.87034035 -12.58203125 -0.984375 C-8.00011039 -2.16119054 -4.16846928 -2.65356239 0 0 Z " fill="#193152" transform="translate(590.64453125,262.046875)"/>
<path d="M0 0 C0.72445312 -0.00322266 1.44890625 -0.00644531 2.1953125 -0.00976562 C5.9807029 0.02864701 7.78295894 0.16780596 11 2.3125 C11.30783216 4.83873011 11.41992596 7.12229026 11.40405273 9.65209961 C11.41091599 10.40835129 11.41777924 11.16460297 11.42485046 11.94377136 C11.44319577 14.45098492 11.43927003 16.95757729 11.43359375 19.46484375 C11.43815205 21.20357976 11.44345657 22.94231397 11.44947815 24.68104553 C11.45842457 28.32869781 11.45596906 31.97613134 11.44604492 35.6237793 C11.43455661 40.30277713 11.45475645 44.98102016 11.48396206 49.65991879 C11.50229233 53.25184441 11.50203792 56.84358813 11.49632454 60.43554878 C11.49617092 62.16076275 11.50224901 63.88598873 11.51461601 65.61115837 C11.52946398 68.02242482 11.51889596 70.43228402 11.50170898 72.84350586 C11.51137695 73.55893555 11.52104492 74.27436523 11.53100586 75.01147461 C11.48343598 78.19212857 11.40248486 79.88031414 9.19154358 82.25440979 C5.9177197 83.83503133 3.04869742 83.70868004 -0.5625 83.6875 C-1.23474609 83.69910156 -1.90699219 83.71070313 -2.59960938 83.72265625 C-5.25893631 83.7068112 -7.40118535 83.68972004 -9.69033813 82.24768066 C-11.67283155 79.31831162 -11.4176329 76.36765754 -11.38818359 72.95117188 C-11.39344055 72.20452774 -11.39869751 71.45788361 -11.40411377 70.68861389 C-11.41732325 68.21928012 -11.40857267 65.75059039 -11.3984375 63.28125 C-11.40045797 61.5663643 -11.40336918 59.85147944 -11.40713501 58.13659668 C-11.41155964 54.54199038 -11.40512294 50.94760767 -11.39111328 47.35302734 C-11.37402121 42.74254306 -11.38386167 38.13258267 -11.40183067 33.52211761 C-11.41266483 29.98081506 -11.40922389 26.43963697 -11.4014473 22.89833069 C-11.39944426 21.19824665 -11.40190818 19.49815135 -11.40888596 17.79808044 C-11.41649452 15.42302465 -11.40490539 13.0488204 -11.38818359 10.67382812 C-11.39425629 9.96932022 -11.40032898 9.26481232 -11.40658569 8.53895569 C-11.36968265 5.71356649 -11.298637 3.75969121 -9.70620728 1.37512207 C-6.73464326 -0.47556135 -3.38704544 -0.07533464 0 0 Z " fill="#152F4F" transform="translate(616,261.6875)"/>
<path d="M0 0 C3.76266417 1.77871397 5.51796464 3.33137031 7.9375 6.6875 C9.34831968 11.08593782 9.19902988 14.55701941 8 19 C5.48944653 23.27723925 2.67891866 25.38037431 -2 27 C-6.77417152 27 -9.64135168 26.63013158 -13.375 23.625 C-16.70312729 20.29687271 -18.28855591 18.30207946 -18.3125 13.625 C-18.17323206 8.25447996 -16.47405751 5.65273114 -12.9375 1.6875 C-8.63803916 -0.78240303 -4.84484872 -0.7608897 0 0 Z " fill="#1A3353" transform="translate(621,227)"/>
<path d="M0 0 C2.1875 0.3125 2.1875 0.3125 4 1 C3.45730469 1.50789063 2.91460937 2.01578125 2.35546875 2.5390625 C-1.71094239 6.45160944 -4.89477656 9.7369414 -7 15 C-7.90922753 12.52180058 -8.18726604 11.42791933 -7.109375 8.96484375 C-6.66078125 8.29582031 -6.2121875 7.62679688 -5.75 6.9375 C-5.09257812 5.93009766 -5.09257812 5.93009766 -4.421875 4.90234375 C-1.73894177 1.31281495 -1.73894177 1.31281495 0 0 Z " fill="#3E516C" transform="translate(454,301)"/>
</svg>
